<svg xmlns="http://www.w3.org/2000/svg" xmlns:xlink="http://www.w3.org/1999/xlink">
<symbol viewBox="0 0 47 44" id="icon_one">
<path fill-rule="evenodd" fill="rgb(38, 38, 38)"
d="M44.422,33.40 L18.236,33.40 C15.193,33.40 12.521,31.94 11.586,28.196 L4.377,5.844 C4.346,5.746 4.256,5.680 4.152,5.680 L2.577,5.680 C1.236,5.680 0.149,4.593 0.149,3.251 C0.149,1.911 1.236,0.823 2.577,0.823 L4.152,0.823 C6.370,0.823 8.318,2.242 8.998,4.354 L16.206,26.707 C16.491,27.589 17.307,28.183 18.236,28.183 L44.422,28.183 C45.763,28.183 46.850,29.271 46.850,30.612 C46.850,31.954 45.763,33.40 44.422,33.40 ZM41.802,23.959 C41.623,24.704 40.956,25.229 40.189,25.229 L19.886,25.229 C19.166,25.229 18.527,24.763 18.307,24.75 L13.316,8.468 C13.57,7.659 13.200,6.773 13.702,6.84 C14.204,5.398 15.3,4.990 15.854,4.990 L42.971,4.990 C43.788,4.990 44.559,5.365 45.64,6.5 C45.569,6.647 45.753,7.485 45.563,8.278 L41.802,23.959 ZM19.956,35.837 C22.94,35.837 23.827,37.571 23.827,39.710 C23.827,41.849 22.94,43.582 19.956,43.582 C17.818,43.582 16.86,41.849 16.86,39.710 C16.86,37.571 17.818,35.837 19.956,35.837 ZM40.286,35.837 C42.424,35.837 44.157,37.571 44.157,39.710 C44.157,41.849 42.424,43.582 40.286,43.582 C38.149,43.582 36.415,41.849 36.415,39.710 C36.415,37.571 38.148,35.837 40.286,35.837 Z" />
</symbol>

<symbol viewBox="0 0 55 49" id="icon_two">
 <path fill-rule="evenodd"  fill="rgb(38, 38, 38)"
        d="M40.782,48.299 C38.615,44.590 35.416,42.903 31.204,42.922 C28.803,42.936 26.403,42.841 24.9,42.949 C21.899,43.45 19.935,42.730 18.89,41.691 C17.219,41.201 16.239,41.38 15.275,40.819 C12.944,40.292 10.669,39.588 8.334,39.11 C5.51,38.201 4.270,37.732 1.849,36.773 C1.454,36.617 0.970,36.744 0.780,36.254 C0.600,35.784 0.572,35.291 0.910,34.888 C1.496,34.192 2.90,33.856 3.143,33.918 C3.220,33.921 3.315,33.921 3.379,33.884 C5.272,32.815 5.268,33.541 7.192,33.698 L12.605,34.392 C13.559,34.321 20.715,36.56 21.126,35.236 C18.912,35.236 16.332,33.508 16.647,33.93 C17.211,32.348 17.998,32.17 18.945,32.20 C21.156,32.26 23.334,32.97 25.500,32.751 C27.124,33.244 28.795,33.164 30.486,32.487 C33.243,31.383 36.204,31.24 38.803,32.714 C42.7,34.801 45.46,37.150 47.369,40.302 C50.70,43.972 51.375,44.810 54.330,48.272 L40.782,48.299 ZM43.392,14.878 C43.1,15.288 42.591,15.841 42.152,16.450 C41.275,17.640 40.120,18.915 38.597,19.843 C37.843,20.301 37.26,20.712 36.167,20.989 C35.315,21.285 34.435,21.476 33.615,21.583 C32.880,21.671 31.201,21.894 30.682,21.869 C31.82,21.258 31.501,20.643 31.981,20.65 C32.297,19.640 32.671,19.268 33.19,18.886 C33.367,18.498 33.766,18.183 34.127,17.842 C34.511,17.533 34.904,17.262 35.271,16.991 C35.668,16.772 36.45,16.564 36.390,16.373 C36.762,16.236 37.103,16.107 37.408,15.995 C37.704,15.860 37.994,15.862 38.218,15.803 C38.679,15.721 38.943,15.673 38.943,15.673 C38.943,15.673 38.678,15.701 38.212,15.751 C37.981,15.792 37.685,15.770 37.375,15.885 C37.60,15.976 36.702,16.82 36.312,16.195 C35.943,16.365 35.545,16.548 35.120,16.742 C34.730,16.991 34.301,17.240 33.882,17.529 C33.492,17.853 33.52,18.150 32.664,18.519 C32.279,18.887 31.863,19.245 31.514,19.654 C31.92,20.105 30.697,20.570 30.321,21.41 C30.318,20.970 30.305,20.898 30.308,20.826 C30.302,20.136 30.437,19.274 30.734,18.364 C31.40,17.461 31.525,16.536 32.184,15.696 C32.832,14.836 33.676,14.94 34.630,13.488 C35.589,12.893 36.663,12.437 37.793,12.229 C38.913,12.2 40.75,12.7 41.98,12.236 C42.123,12.467 42.983,12.933 43.473,13.388 C43.724,13.593 43.879,13.850 43.979,13.994 C44.69,14.148 44.117,14.235 44.117,14.235 C44.117,14.235 44.42,14.290 43.901,14.394 C43.768,14.493 43.579,14.701 43.392,14.878 ZM29.931,22.352 C29.770,22.614 29.632,22.867 29.487,23.121 C34.807,23.990 39.193,27.637 41.111,32.525 C40.759,32.289 40.413,32.58 40.79,31.842 C37.384,30.84 34.47,29.943 30.247,31.464 C28.927,31.994 27.627,32.65 26.357,31.683 C23.946,30.953 21.562,30.885 19.309,30.879 C17.809,30.879 16.566,31.476 15.711,32.606 C15.496,32.887 15.376,33.222 15.353,33.566 C14.193,33.360 13.515,33.254 13.71,33.251 L12.714,33.205 C14.441,28.104 18.808,24.224 24.192,23.197 C24.91,23.24 24.2,22.856 23.895,22.680 C23.746,22.441 23.450,21.798 23.489,21.644 C23.507,21.551 23.502,21.459 23.507,21.369 C23.131,20.898 22.737,20.432 22.315,19.983 C21.959,19.572 21.545,19.216 21.161,18.848 C20.773,18.478 20.334,18.180 19.943,17.858 C19.523,17.569 19.97,17.316 18.706,17.70 C18.281,16.876 17.883,16.693 17.511,16.523 C17.122,16.409 16.765,16.303 16.450,16.213 C16.140,16.99 15.845,16.121 15.614,16.79 C15.148,16.30 14.883,16.1 14.883,16.1 C14.883,16.1 15.145,16.47 15.606,16.132 C15.831,16.190 16.121,16.188 16.419,16.324 C16.721,16.437 17.62,16.564 17.435,16.701 C17.780,16.893 18.158,17.100 18.554,17.319 C18.919,17.590 19.314,17.861 19.699,18.170 C20.57,18.511 20.458,18.828 20.808,19.213 C21.154,19.599 21.527,19.969 21.842,20.394 C22.324,20.972 22.745,21.584 23.141,22.195 C22.625,22.222 20.945,21.999 20.209,21.912 C19.391,21.805 18.509,21.615 17.659,21.318 C16.797,21.39 15.984,20.630 15.228,20.171 C13.706,19.243 12.550,17.968 11.673,16.777 C11.233,16.170 10.826,15.617 10.434,15.206 C10.247,15.28 10.58,14.820 9.923,14.723 C9.782,14.616 9.708,14.561 9.708,14.561 C9.708,14.561 9.757,14.477 9.847,14.321 C9.944,14.178 10.102,13.921 10.354,13.717 C10.842,13.260 11.706,12.796 12.729,12.564 C13.753,12.333 14.918,12.330 16.34,12.558 C17.165,12.766 18.239,13.223 19.199,13.816 C20.153,14.422 20.996,15.165 21.643,16.25 C22.304,16.864 22.790,17.790 23.94,18.692 C23.392,19.604 23.527,20.465 23.519,21.153 C23.524,21.226 23.509,21.297 23.507,21.367 C23.969,21.951 24.379,22.527 24.758,23.93 C25.502,22.981 26.263,22.916 27.37,22.916 C27.131,22.916 27.218,22.937 27.311,22.938 C27.419,22.441 27.524,21.934 27.617,21.397 C27.677,21.29 27.940,20.128 28.112,20.13 C28.210,19.933 28.284,19.840 28.370,19.752 C28.315,20.893 28.201,21.981 28.62,22.996 C28.330,23.15 28.600,23.25 28.864,23.58 C29.293,22.406 29.780,21.722 30.321,21.41 C30.324,21.132 30.321,21.224 30.337,21.318 C30.378,21.469 30.80,22.113 29.931,22.352 ZM30.284,16.732 C29.786,17.894 29.171,18.871 28.566,19.550 C28.505,19.627 28.431,19.684 28.367,19.753 C28.404,18.960 28.417,18.153 28.386,17.338 C28.391,16.620 28.289,15.906 28.226,15.203 C28.162,14.501 27.985,13.820 27.875,13.160 C27.708,12.508 27.501,11.888 27.327,11.302 C27.74,10.740 26.837,10.210 26.618,9.719 C26.329,9.269 26.65,8.855 25.830,8.489 C25.623,8.106 25.306,7.871 25.113,7.629 C24.695,7.174 24.454,6.915 24.454,6.915 C24.454,6.915 24.675,7.192 25.60,7.676 C25.233,7.928 25.525,8.178 25.703,8.573 C25.906,8.949 26.136,9.373 26.386,9.834 C26.564,10.325 26.757,10.858 26.963,11.423 C27.89,12.8 27.247,12.621 27.363,13.262 C27.421,13.914 27.545,14.576 27.556,15.264 C27.569,15.948 27.616,16.642 27.559,17.339 C27.537,18.331 27.419,19.308 27.284,20.262 C26.747,19.835 25.270,18.153 24.615,17.427 C23.892,16.607 23.182,15.652 22.595,14.619 C21.979,13.593 21.527,12.478 21.176,11.361 C20.470,9.118 20.427,6.843 20.592,4.896 C20.684,3.907 20.758,3.1 20.726,2.252 C20.691,1.912 20.685,1.543 20.638,1.328 C20.592,1.101 20.564,0.980 20.564,0.980 C20.564,0.980 20.684,0.941 20.909,0.865 C21.131,0.805 21.510,0.686 21.940,0.701 C22.823,0.673 24.83,0.960 25.303,1.620 C26.520,2.282 27.682,3.290 28.596,4.488 C29.538,5.676 30.212,7.67 30.648,8.492 C31.71,9.924 31.265,11.398 31.162,12.813 C31.88,14.224 30.766,15.569 30.284,16.732 Z"/>
</symbol>

<symbol viewBox="0 0 54 54" id="icon_three">
<path fill-rule="evenodd" fill="rgb(38, 38, 38)"
                d="M41.81,37.396 C41.721,37.441 42.365,37.486 42.997,37.511 C41.425,39.878 39.300,41.932 36.675,43.450 C34.48,44.965 31.213,45.790 28.386,45.968 C28.685,45.387 28.985,44.793 29.273,44.190 C30.770,44.6 32.256,43.619 33.699,43.23 C33.716,42.990 33.732,42.966 33.738,42.937 C33.789,42.757 33.952,42.572 33.952,42.572 L33.867,42.361 L34.53,42.97 C34.53,42.97 34.262,41.756 34.392,41.654 C34.523,41.551 35.622,40.601 35.860,40.421 C36.67,40.257 36.979,39.573 37.377,39.248 C37.432,39.205 37.476,39.162 37.513,39.136 C37.775,38.900 38.276,38.267 38.456,37.977 C38.544,37.844 38.681,37.506 38.809,37.183 L38.806,37.183 C39.570,37.267 40.330,37.339 41.81,37.396 ZM22.468,38.687 C22.397,38.676 22.489,38.726 22.550,38.759 C22.531,38.720 22.505,38.693 22.468,38.687 ZM36.756,37.347 C36.946,37.371 37.195,37.352 37.382,37.347 L37.438,37.347 C37.622,37.347 37.779,37.267 38.68,37.110 L38.89,37.98 L38.89,37.98 C37.857,37.67 37.619,37.38 37.387,37.5 C37.155,36.971 36.921,36.942 36.687,36.905 C36.852,37.33 36.965,37.139 36.918,37.158 C36.782,37.214 36.547,37.321 36.756,37.347 ZM22.552,38.759 C22.553,38.761 22.555,38.762 22.555,38.766 C22.622,38.795 22.595,38.783 22.552,38.759 ZM28.470,24.605 C28.470,24.605 28.483,24.620 28.499,24.637 C28.514,24.608 28.470,24.605 28.470,24.605 ZM34.793,28.782 L34.752,28.782 L34.717,28.933 C34.550,29.545 34.382,30.166 34.204,30.785 C34.347,30.788 34.481,30.801 34.481,30.801 C34.481,30.801 34.637,30.732 34.684,30.529 C34.724,30.326 34.843,30.99 34.843,30.99 C34.843,30.99 34.883,30.107 34.955,30.123 C34.998,30.40 35.51,29.923 35.51,29.781 C35.51,29.500 34.927,29.437 34.927,29.282 C34.927,29.126 34.988,28.751 34.988,28.751 L34.793,28.782 ZM33.958,31.618 L33.874,31.902 L34.3,31.878 C34.3,31.878 34.36,31.968 34.82,32.94 C34.113,32.26 34.132,31.972 34.132,31.972 C34.132,31.972 34.132,31.883 34.89,31.702 C34.82,31.673 34.23,31.642 33.958,31.618 ZM35.597,25.602 L35.556,25.581 C35.464,25.959 35.379,26.336 35.282,26.708 C35.347,26.749 35.301,26.762 35.566,26.772 C35.943,26.792 35.681,26.792 35.961,26.792 C36.243,26.792 36.288,26.826 36.338,26.707 C36.387,26.592 36.404,26.772 36.404,26.461 C36.404,26.145 36.256,26.16 36.158,25.933 C36.58,25.853 35.893,25.733 35.597,25.602 ZM53.590,34.3 C52.745,37.158 43.570,37.536 31.929,35.206 C28.118,46.479 23.205,54.256 20.58,53.412 C18.73,52.878 17.191,49.22 17.390,43.319 C17.459,43.355 17.527,43.397 17.593,43.431 C14.793,41.810 12.368,39.461 10.636,36.455 C9.122,33.821 8.302,30.979 8.122,28.142 C8.675,28.431 9.237,28.708 9.808,28.986 C11.847,29.963 13.986,30.857 16.155,31.657 L16.149,31.657 L16.155,31.771 L15.843,32.325 L15.554,32.507 L15.633,32.638 L15.685,32.900 L15.525,32.900 C15.525,32.900 15.525,33.266 15.525,33.478 C15.525,33.689 15.947,33.767 15.947,33.767 L15.816,33.850 C15.816,33.850 15.843,33.978 15.974,34.190 C16.105,34.403 16.208,34.587 16.262,34.767 C16.315,34.951 16.393,35.471 16.393,35.471 C16.393,35.471 16.737,36.49 16.892,36.291 C17.51,36.524 17.365,36.843 17.496,37.105 C17.627,37.369 17.915,37.236 18.464,37.369 C19.16,37.499 19.249,37.683 19.249,37.683 C19.249,37.683 19.539,37.918 19.723,38.25 C19.905,38.127 20.89,38.127 20.586,38.127 C21.63,38.127 20.752,38.155 21.334,38.245 L21.429,38.258 C22.127,38.361 21.575,38.311 22.240,38.617 L22.267,38.629 C22.430,38.701 22.517,38.736 22.564,38.761 C22.616,38.883 22.593,39.111 22.610,39.205 C22.637,39.336 22.821,39.179 22.952,39.179 C23.53,39.179 23.76,39.257 23.190,39.330 C23.223,39.353 23.264,39.370 23.317,39.389 C23.552,39.467 23.604,39.311 23.604,39.311 L23.869,39.625 L24.79,39.913 L23.869,40.415 L23.686,40.598 C23.686,40.598 23.715,40.362 23.686,40.173 C23.657,39.992 23.502,40.257 23.502,40.257 L23.345,40.756 L23.919,41.310 L24.93,41.466 L24.469,41.811 L24.493,41.879 L24.707,42.496 L24.678,42.705 L24.809,43.50 C24.809,43.50 24.643,43.122 24.493,43.154 C24.435,43.169 24.383,43.181 24.338,43.181 C24.260,43.181 24.169,43.272 24.93,43.364 C24.10,43.462 23.945,43.574 23.945,43.574 C23.945,43.574 24.5,43.690 24.93,43.812 C24.149,43.890 24.214,43.968 24.286,44.20 C24.322,44.50 24.356,44.62 24.388,44.90 C24.417,44.93 24.444,44.101 24.472,44.105 C24.466,44.118 24.460,44.128 24.453,44.137 L24.453,44.137 L24.456,44.137 L24.378,44.271 L24.378,44.271 C24.150,44.665 23.864,45.151 23.534,45.665 C21.617,45.293 19.760,44.624 18.34,43.684 C18.37,43.686 18.40,43.687 18.43,43.689 C18.94,47.133 18.737,49.366 19.996,49.704 C22.379,50.344 26.243,43.981 29.433,34.674 C28.92,34.374 26.729,34.37 25.347,33.662 C10.744,29.739 0.287,23.530 0.710,19.797 C1.242,17.807 5.84,16.923 10.771,17.123 C10.706,17.235 10.643,17.352 10.582,17.464 C12.201,14.599 14.575,12.113 17.623,10.351 C20.658,8.590 23.977,7.774 27.248,7.792 C27.134,7.790 27.15,7.786 26.897,7.788 C29.567,2.753 32.256,0.144 34.238,0.387 C37.962,1.389 37.809,14.74 33.895,28.712 C33.531,30.99 33.135,31.454 32.732,32.767 C42.366,34.653 49.790,34.479 50.438,32.88 C50.775,30.828 49.165,29.155 46.216,27.389 C46.216,27.380 46.216,27.372 46.216,27.366 C46.166,29.335 45.814,31.288 45.175,33.141 C44.566,33.174 44.7,33.175 43.553,33.175 L43.553,33.175 C43.184,33.175 42.894,33.169 42.723,33.163 C42.228,33.144 41.732,33.122 41.232,33.85 C41.319,32.777 41.399,32.550 41.411,32.423 C41.438,32.263 41.526,32.16 41.526,32.16 L40.940,31.882 L40.872,31.498 L40.626,31.454 L40.398,31.886 C40.398,31.886 40.221,32.156 40.15,32.266 C39.816,32.377 39.545,32.400 39.545,32.400 L39.610,32.89 C39.501,32.43 39.274,32.132 39.274,32.132 L39.249,31.836 C39.249,31.836 39.115,31.541 39.2,31.522 C38.890,31.498 38.708,31.251 38.708,31.251 C38.708,31.251 38.641,31.159 38.574,30.977 C38.571,30.973 38.563,30.966 38.554,30.959 L38.586,30.804 C38.586,30.804 38.800,30.566 38.976,30.357 C39.152,30.148 39.211,30.566 39.393,30.719 C39.574,30.870 39.513,31.105 39.513,31.105 C39.513,31.105 39.632,31.167 39.782,31.167 C39.934,31.167 39.992,31.285 39.992,31.285 L40.292,31.404 L40.592,31.73 C40.592,31.73 40.649,30.863 40.860,30.863 C41.68,30.863 40.892,31.132 40.892,31.285 C40.892,31.435 41.42,31.285 41.458,31.105 C41.875,30.929 41.693,30.955 42.84,30.744 C42.474,30.535 42.265,30.595 42.411,30.476 C42.566,30.357 42.682,30.237 42.682,30.237 L43.10,30.451 L43.371,30.388 L43.732,30.178 L43.732,30.451 C43.732,30.451 43.494,30.751 43.641,30.955 C43.792,31.167 43.818,31.105 43.732,31.376 C43.641,31.646 43.700,31.646 43.732,31.797 C43.756,31.908 43.762,31.922 43.764,31.988 C45.122,27.529 44.709,22.544 42.202,18.190 C41.3,16.99 39.434,14.358 37.625,12.992 C37.678,12.323 37.719,11.661 37.747,11.2 C40.106,12.577 42.153,14.711 43.667,17.343 C45.406,20.360 46.224,23.654 46.219,26.905 C46.219,26.818 46.221,26.733 46.221,26.643 C51.233,29.317 54.121,32.10 53.590,34.3 ZM30.744,13.220 C30.744,13.220 30.932,13.114 31.26,13.72 C31.124,13.32 31.26,13.20 30.932,12.953 C30.839,12.886 30.717,13.6 30.717,13.6 C30.717,13.6 30.664,13.59 30.611,13.178 C30.606,13.190 30.602,13.200 30.597,13.206 C30.546,13.268 30.490,13.105 30.477,13.20 C30.463,12.925 30.116,12.990 30.128,12.990 C30.142,12.990 30.209,13.164 30.209,13.164 C30.209,13.164 30.237,13.328 30.237,13.393 C30.237,13.462 30.237,13.580 30.290,13.662 C30.343,13.743 30.490,13.865 30.490,13.865 L30.597,13.796 L30.636,13.769 L30.798,13.500 L30.932,13.380 L30.744,13.220 ZM28.600,12.30 C28.600,12.30 28.622,11.840 28.726,11.864 C28.832,11.883 28.936,11.611 28.936,11.611 C28.936,11.611 28.851,11.443 28.748,11.443 C28.642,11.443 28.411,11.466 28.411,11.466 L28.347,11.337 C28.347,11.337 28.221,11.316 28.53,11.379 C27.883,11.443 27.840,11.295 27.840,11.295 L27.819,11.42 L27.586,11.106 L27.419,10.957 C27.419,10.957 27.357,10.831 27.460,10.831 C27.564,10.831 27.711,10.853 27.711,10.853 L27.923,10.704 L27.839,10.538 L27.984,10.370 C27.984,10.370 27.691,10.219 27.626,10.330 C27.564,10.432 27.331,10.519 27.331,10.519 C27.331,10.519 27.353,10.454 27.227,10.285 C27.103,10.115 27.290,10.33 27.15,10.95 C26.853,10.132 26.723,10.213 26.645,10.272 C26.586,10.314 26.553,10.347 26.553,10.347 C26.553,10.347 26.257,10.410 26.240,10.515 C26.216,10.618 26.597,10.683 26.597,10.683 C26.597,10.683 26.618,10.654 26.645,10.628 C26.701,10.567 26.802,10.483 26.872,10.558 C26.976,10.661 27.60,10.791 27.60,10.791 L26.661,11.0 L26.645,10.987 L26.449,10.831 L26.50,10.831 L25.862,10.915 L25.482,10.957 C25.482,10.957 25.546,11.145 25.546,11.252 C25.546,11.361 25.379,11.466 25.379,11.466 L25.154,11.445 L25.125,11.443 L24.892,11.611 C24.892,11.611 24.640,11.632 24.534,11.713 C24.517,11.730 24.499,11.739 24.480,11.742 C24.383,11.768 24.283,11.702 24.283,11.841 C24.283,12.9 24.303,12.94 24.179,12.116 C24.150,12.123 24.117,12.130 24.80,12.136 C23.946,12.165 23.780,12.201 23.780,12.201 C23.780,12.201 23.653,12.264 23.547,12.369 C23.445,12.471 23.211,12.537 23.211,12.537 L23.177,12.528 L22.791,12.450 L22.245,12.684 L22.229,12.718 L22.118,12.981 L21.759,13.24 C21.759,13.24 21.462,13.171 21.444,13.275 C21.433,13.328 21.377,13.377 21.326,13.412 C21.280,13.446 21.234,13.465 21.234,13.465 C21.234,13.465 21.23,13.549 20.918,13.631 C20.814,13.714 20.685,13.882 20.685,13.882 L20.599,14.73 L20.748,14.286 L20.412,14.326 L20.452,14.494 C20.620,14.662 20.727,14.746 20.830,14.662 C20.934,14.575 20.871,14.511 20.996,14.471 C21.71,14.444 21.205,14.399 21.320,14.358 C21.404,14.327 21.481,14.300 21.523,14.280 C21.626,14.240 21.797,14.92 21.921,14.92 C22.49,14.92 22.173,14.71 22.173,14.71 L22.223,14.31 L22.510,13.798 L22.847,13.948 L23.121,13.906 C23.121,13.906 23.121,13.975 23.170,14.28 C23.190,14.47 23.214,14.62 23.249,14.73 C23.373,14.114 23.563,14.114 23.563,14.114 C23.563,14.114 23.667,13.966 23.815,13.966 L24.75,13.966 L24.192,13.966 L24.234,13.776 L24.472,13.887 L24.506,13.903 L24.696,14.50 C24.696,14.50 24.611,14.73 24.822,14.156 C24.950,14.206 25.69,14.190 25.144,14.166 C25.190,14.151 25.222,14.134 25.222,14.134 L25.581,14.218 C25.581,14.218 25.604,13.880 25.496,13.880 C25.388,13.880 25.182,13.776 25.182,13.776 L25.414,13.692 L25.665,13.650 L25.729,13.926 L26.128,13.798 L26.66,13.566 L26.87,13.206 L26.465,13.268 L26.487,13.520 C26.487,13.520 26.560,13.555 26.642,13.572 C26.731,13.596 26.824,13.599 26.824,13.520 C26.824,13.372 26.740,13.268 26.845,13.268 C26.950,13.268 27.162,13.206 27.162,13.206 L27.264,13.56 L27.413,12.718 L27.579,12.972 L27.811,12.824 L27.769,12.611 L28.273,12.377 C28.273,12.377 28.570,12.336 28.698,12.336 C28.821,12.336 28.863,12.297 28.863,12.297 C28.863,12.297 28.947,12.128 28.821,12.128 C28.701,12.133 28.600,12.30 28.600,12.30 ZM23.571,20.196 L23.360,20.298 L23.846,20.531 L24.83,20.544 L24.262,20.554 C24.262,20.554 24.389,20.341 24.412,20.131 C24.421,20.32 24.446,19.991 24.484,19.960 C24.527,19.927 24.592,19.904 24.685,19.836 C24.851,19.711 24.812,19.668 24.770,19.541 C24.737,19.445 24.571,19.457 24.484,19.469 C24.452,19.473 24.432,19.476 24.432,19.476 L24.83,19.650 L24.53,19.666 L23.885,19.454 L23.653,19.517 L23.421,19.751 C23.398,19.729 23.571,19.773 23.571,19.773 C23.571,19.773 23.631,19.751 23.802,19.773 C23.969,19.796 23.761,19.941 23.761,19.941 L23.424,20.26 L23.571,20.196 ZM24.372,15.260 L24.83,15.278 L24.75,15.278 C24.75,15.278 24.19,15.579 24.83,15.757 C24.86,15.768 24.91,15.778 24.96,15.789 C24.156,15.909 24.280,16.29 24.484,16.58 C24.565,16.71 24.657,16.67 24.770,16.41 C24.957,16.2 25.15,15.989 25.26,15.989 L25.0,15.999 C25.0,15.999 25.37,15.989 25.26,15.989 L25.155,15.939 L25.319,15.873 C25.319,15.873 25.590,15.707 25.590,15.559 C25.590,15.408 25.358,15.455 25.169,15.455 L25.155,15.455 C24.983,15.453 24.997,15.428 24.918,15.221 C24.833,15.8 24.833,15.346 24.833,15.346 C24.833,15.346 24.748,15.327 24.667,15.136 C24.581,14.946 24.562,14.799 24.562,14.799 L24.487,14.837 L24.249,14.965 L24.312,15.92 L24.372,15.260 ZM24.160,21.312 C24.160,21.312 24.244,21.416 24.372,21.589 C24.424,21.661 24.460,21.637 24.484,21.589 C24.517,21.523 24.541,21.419 24.600,21.419 C24.703,21.419 24.622,21.589 24.748,21.568 C24.875,21.547 25.147,21.545 25.147,21.545 L25.155,21.554 L25.337,21.757 C25.337,21.757 25.548,21.653 25.568,21.545 C25.590,21.442 25.590,21.442 25.758,21.442 C25.925,21.442 25.863,21.419 26.74,21.251 C26.285,21.85 26.10,20.937 25.841,20.851 C25.672,20.767 25.817,20.618 25.817,20.618 L25.841,20.321 C25.841,20.321 25.841,20.218 25.817,20.68 C25.796,19.921 25.755,19.815 25.734,19.668 C25.712,19.521 25.566,19.564 25.566,19.564 L25.566,19.373 C25.566,19.373 25.881,19.373 25.988,19.332 C26.91,19.292 25.988,19.79 25.988,19.79 C25.988,19.79 25.738,18.976 25.548,18.912 C25.358,18.850 25.484,18.809 25.799,18.787 C26.113,18.766 25.841,18.619 25.841,18.619 L25.589,18.471 C25.589,18.471 25.463,18.639 25.252,18.724 C25.206,18.743 25.175,18.761 25.154,18.783 C25.79,18.856 25.128,18.943 25.62,19.41 L25.62,19.207 L25.154,19.364 L25.210,19.462 C25.210,19.462 25.190,19.549 25.154,19.640 C25.134,19.687 25.114,19.737 25.83,19.778 C24.999,19.904 25.125,20.54 25.125,20.54 C25.125,20.54 25.125,20.327 25.83,20.477 C25.42,20.624 24.723,20.349 24.723,20.349 L24.660,20.709 L24.482,20.709 L24.368,20.709 L24.410,20.899 L24.482,20.954 L24.598,21.46 L24.723,21.237 L24.482,21.149 L24.368,21.110 L24.160,21.312 ZM20.859,11.799 L20.500,12.179 C20.500,12.179 20.814,12.241 20.921,12.219 C20.983,12.206 21.154,12.94 21.330,11.973 C21.457,11.884 21.585,11.799 21.680,11.736 C21.913,11.587 21.996,11.632 21.996,11.632 L22.81,11.799 L21.575,12.96 L22.165,12.11 L22.235,11.945 L22.462,11.736 L22.695,11.461 L23.53,11.483 L23.187,11.434 L23.493,11.316 C23.493,11.316 23.745,11.150 23.853,10.957 C23.934,10.808 23.991,10.893 24.91,10.916 C24.122,10.925 24.150,10.925 24.190,10.915 C24.356,10.875 24.275,10.725 24.275,10.578 C24.275,10.506 24.373,10.500 24.495,10.501 C24.616,10.504 24.758,10.515 24.823,10.471 C24.948,10.384 24.718,10.218 24.549,10.173 L24.495,10.161 C24.362,10.129 24.294,10.114 24.275,9.984 C24.262,9.908 24.184,9.883 24.94,9.887 C24.10,9.892 23.917,9.920 23.855,9.962 C23.730,10.48 23.479,10.66 23.560,9.900 C23.572,9.873 23.593,9.865 23.604,9.847 C22.952,9.984 22.301,10.161 21.654,10.376 C21.800,10.373 21.862,10.384 21.958,10.384 C22.84,10.384 21.832,10.533 21.832,10.533 C21.832,10.533 21.454,10.661 21.347,10.746 L21.334,10.757 C21.243,10.843 21.285,10.979 21.285,10.979 C21.285,10.979 21.305,10.979 21.334,10.979 C21.403,10.978 21.524,10.973 21.599,10.957 C21.703,10.933 21.789,10.893 22.60,10.724 C22.150,10.671 22.200,10.642 22.235,10.625 C22.316,10.591 22.319,10.610 22.418,10.554 C22.564,10.466 22.457,10.785 22.457,10.785 L22.856,10.637 L23.180,10.623 L23.298,10.616 L23.424,10.382 L23.180,10.330 L23.46,10.298 L23.173,10.172 L23.180,10.172 C23.239,10.172 23.604,10.173 23.719,10.196 C23.847,10.214 23.719,10.362 23.719,10.362 L23.680,10.528 L23.533,10.803 C23.533,10.803 23.342,10.826 23.196,10.826 L23.180,10.826 C23.36,10.836 22.880,10.994 22.880,10.994 L22.585,11.204 L22.232,11.204 L22.162,11.204 L22.98,11.437 L21.762,11.397 C21.762,11.397 21.722,11.292 21.700,11.144 C21.677,10.994 21.532,11.144 21.532,11.144 C21.532,11.144 21.473,11.394 21.330,11.502 C21.302,11.524 21.273,11.538 21.237,11.544 C21.28,11.587 20.859,11.799 20.859,11.799 ZM25.443,9.565 C25.262,9.583 25.82,9.599 24.903,9.622 C24.925,9.627 24.943,9.636 25.2,9.647 C25.126,9.668 25.23,9.709 25.23,9.813 C25.23,9.882 25.53,9.909 25.157,9.929 C25.210,9.938 25.281,9.947 25.383,9.962 C25.679,10.3 25.485,9.876 25.446,9.625 C25.443,9.602 25.439,9.581 25.443,9.565 ZM24.308,9.813 C24.308,9.813 24.330,9.770 24.348,9.706 C24.316,9.713 24.287,9.715 24.257,9.720 C24.300,9.758 24.308,9.813 24.308,9.813 ZM26.719,9.482 C26.696,9.532 26.679,9.584 26.685,9.647 C26.708,9.836 26.749,9.647 26.875,9.605 C26.952,9.578 26.969,9.549 26.983,9.480 C26.900,9.479 26.811,9.482 26.719,9.482 ZM14.386,15.71 L14.651,15.89 L14.988,14.877 L15.324,14.980 L15.134,15.67 C15.134,15.67 14.948,15.339 14.904,15.467 C14.860,15.592 15.408,15.570 15.408,15.570 C15.408,15.570 15.554,15.170 15.554,15.2 C15.554,14.836 15.996,14.727 15.996,14.727 L16.120,14.390 L16.333,14.540 C16.333,14.540 16.457,14.306 16.437,14.202 C16.413,14.97 16.36,14.74 16.36,14.74 L16.413,13.885 L16.792,13.990 L16.706,14.727 L17.84,14.727 L17.169,14.855 C17.169,14.855 16.644,15.149 16.537,15.149 C16.435,15.149 16.201,15.426 16.201,15.426 L15.991,15.659 C15.991,15.659 16.76,15.785 16.242,15.828 C16.408,15.867 16.408,15.974 16.408,15.974 C16.408,15.974 16.641,15.890 16.641,15.763 C16.641,15.637 16.556,15.597 16.556,15.597 C16.556,15.597 16.743,15.384 16.871,15.237 C16.995,15.89 17.668,14.794 17.796,14.645 C17.920,14.498 17.836,14.395 17.836,14.395 L18.151,14.204 C18.151,14.204 18.236,13.804 18.278,13.700 C18.317,13.596 18.761,13.383 19.77,13.151 C19.393,12.917 19.436,12.899 19.853,12.792 C20.276,12.686 19.981,12.641 19.958,12.515 C19.937,12.388 19.600,12.684 19.600,12.684 L19.96,12.534 C19.96,12.534 19.307,12.534 19.517,12.368 C19.729,12.201 19.684,12.326 19.832,12.264 C19.981,12.201 19.937,12.136 19.937,12.136 L20.168,12.136 C20.168,12.136 20.358,11.948 20.465,11.777 C20.568,11.611 20.801,11.292 20.801,11.292 C20.801,11.292 20.276,11.589 20.170,11.629 C20.67,11.669 19.897,11.589 19.771,11.589 C19.643,11.589 19.457,11.799 19.244,11.883 C19.34,11.970 18.803,12.96 18.803,12.96 L18.489,12.33 L18.238,12.136 L17.627,12.389 C17.627,12.389 17.731,12.305 17.987,12.157 C18.239,12.6 18.489,11.859 18.489,11.859 L18.890,11.757 L18.923,11.550 C18.763,11.637 18.603,11.716 18.440,11.809 C16.904,12.712 15.543,13.815 14.386,15.71 ZM30.222,32.239 C30.645,30.888 31.54,29.491 31.437,28.52 C34.846,15.311 35.238,4.344 32.322,3.561 C31.65,3.224 29.398,4.834 27.635,7.792 C27.614,7.792 27.598,7.792 27.579,7.792 C29.555,7.838 31.512,8.192 33.372,8.836 C33.406,9.445 33.409,10.8 33.408,10.463 C33.409,10.463 33.409,10.463 33.409,10.463 C33.408,10.831 33.403,11.125 33.397,11.296 C33.339,12.897 33.194,14.536 32.984,16.188 C32.905,16.160 32.817,16.141 32.738,16.134 C32.512,16.118 32.506,16.131 32.509,16.134 C32.506,16.131 32.319,15.974 32.250,15.855 C32.178,15.735 32.41,15.645 31.780,15.558 C31.518,15.467 31.537,15.661 31.537,15.661 C31.537,15.661 31.294,15.834 30.979,15.802 C30.678,15.767 30.603,16.104 30.599,16.130 L30.597,16.130 L30.371,16.324 C30.371,16.324 30.250,16.533 30.110,16.533 C29.969,16.533 29.866,16.566 29.866,16.566 C29.866,16.566 29.798,16.827 29.798,16.966 C29.798,17.107 29.658,17.126 29.658,17.126 C29.658,17.126 29.483,17.160 29.362,17.214 C29.240,17.264 29.119,17.336 28.995,17.404 C28.874,17.473 28.925,17.526 28.682,17.667 C28.439,17.804 28.352,17.857 28.352,17.857 L28.22,17.926 L28.193,18.100 L27.933,18.153 C27.933,18.153 27.914,18.309 27.949,18.432 C27.981,18.553 28.249,18.572 28.249,18.572 C28.249,18.572 28.75,18.711 27.864,18.801 C27.655,18.889 27.655,18.921 27.673,19.10 C27.690,19.98 27.811,19.289 28.159,19.376 C28.511,19.465 28.263,19.359 28.419,19.274 C28.580,19.184 28.749,19.134 28.749,19.134 C28.749,19.134 28.963,19.484 28.963,19.639 C28.963,19.794 28.910,20.92 28.928,20.199 C28.946,20.303 29.119,20.164 29.119,20.164 L28.963,20.336 C28.963,20.336 28.995,20.649 28.995,20.739 C28.995,20.827 29.306,20.773 29.306,20.687 C29.306,20.602 29.477,20.458 29.739,20.444 C29.999,20.426 29.966,20.392 29.966,20.183 C29.966,19.973 30.18,19.693 30.18,19.693 L30.315,19.605 C30.315,19.605 30.485,19.477 30.597,19.372 C30.627,19.343 30.649,19.316 30.666,19.292 C30.702,19.236 30.660,19.179 30.597,19.126 C30.544,19.82 30.479,19.36 30.437,18.997 C30.348,18.910 30.315,18.631 30.315,18.456 C30.315,18.282 30.315,18.352 30.335,18.228 C30.351,18.117 30.482,18.108 30.597,18.81 C30.608,18.78 30.619,18.75 30.630,18.71 C30.751,18.36 30.907,17.828 31.133,17.722 C31.359,17.613 31.12,17.599 31.12,17.599 C31.12,17.599 31.47,17.409 31.82,17.249 C31.116,17.91 31.568,17.302 31.568,17.302 L31.742,17.510 L31.533,17.668 L31.294,18.32 L30.946,18.486 L31.225,19.216 C31.225,19.216 31.467,19.338 31.624,19.319 C31.786,19.303 31.957,19.216 32.58,19.129 C32.104,19.94 32.325,19.31 32.568,18.978 L32.487,19.466 C32.407,19.498 32.319,19.433 32.121,19.433 C31.848,19.433 31.777,19.558 31.530,19.581 C31.283,19.608 31.431,19.779 31.431,19.903 C31.431,20.26 31.777,20.175 31.777,20.175 L31.505,20.347 C31.505,20.347 31.381,20.75 31.138,20.101 C30.895,20.127 30.990,20.446 30.839,20.570 C30.692,20.693 30.938,21.67 30.938,21.67 C30.938,21.67 30.761,21.88 30.599,21.179 C30.580,21.192 30.561,21.202 30.543,21.213 C30.371,21.334 30.321,21.239 30.321,21.239 C30.321,21.239 30.222,21.90 30.100,21.90 C29.976,21.90 29.799,21.287 29.676,21.334 C29.552,21.383 29.134,21.334 29.134,21.334 L28.862,21.37 L28.636,21.262 C28.636,21.262 28.439,21.213 28.315,21.62 C28.196,20.913 28.315,20.941 28.290,20.816 C28.266,20.693 28.216,20.693 28.216,20.693 L28.340,20.496 L28.661,20.298 C28.661,20.298 28.734,19.855 28.586,19.658 C28.436,19.459 28.436,19.855 28.436,19.855 L27.942,20.175 L27.969,20.843 L27.868,21.139 L27.676,21.93 L27.553,21.241 C27.553,21.241 27.428,21.167 27.234,21.93 C27.35,21.18 26.690,21.339 26.690,21.339 L26.645,21.449 L26.567,21.633 L26.295,21.584 L26.148,21.757 C26.148,21.757 25.975,21.757 25.849,21.757 C25.723,21.757 25.801,21.979 25.801,21.979 C25.801,21.979 25.715,22.78 25.619,22.115 L25.577,22.57 C25.432,22.38 25.396,22.57 25.309,22.130 C25.268,22.163 25.208,22.182 25.151,22.198 C25.80,22.214 25.20,22.221 25.20,22.221 L24.893,21.897 C24.893,21.897 24.804,21.733 24.717,21.862 C24.626,21.991 24.660,22.78 24.660,22.78 L24.697,22.297 L24.517,22.315 L24.482,22.304 L24.393,22.278 L24.82,22.90 L24.35,22.62 C24.35,22.62 23.820,22.26 23.858,22.168 C23.892,22.311 24.73,22.491 24.73,22.582 C24.73,22.593 24.79,22.600 24.85,22.606 C24.139,22.668 24.397,22.649 24.397,22.764 C24.397,22.891 24.233,23.35 24.233,23.35 C24.233,23.35 24.359,23.140 24.359,23.305 C24.359,23.466 24.322,23.700 24.286,23.805 C24.251,23.912 24.161,23.877 24.125,23.987 C24.115,24.15 24.97,24.44 24.82,24.74 C24.26,24.167 23.946,24.256 23.946,24.256 C23.946,24.256 23.677,24.327 23.585,24.290 C23.493,24.256 23.421,24.125 23.261,24.94 C23.225,24.84 23.196,24.84 23.173,24.87 C23.111,24.95 23.100,24.129 22.940,24.20 C22.722,23.876 22.654,23.822 22.508,23.769 C22.365,23.718 22.293,23.590 22.293,23.590 C22.293,23.590 22.264,23.572 22.228,23.553 C22.162,23.516 22.62,23.465 22.6,23.465 C21.915,23.465 21.773,23.628 21.773,23.628 C21.773,23.628 21.806,23.772 21.773,23.951 C21.739,24.130 21.806,24.222 21.701,24.294 C21.596,24.366 21.575,24.311 21.558,24.457 C21.538,24.600 21.629,24.529 21.486,24.672 C21.357,24.804 21.416,24.801 21.323,24.866 C21.312,24.872 21.299,24.883 21.288,24.890 C21.143,24.981 21.90,24.962 20.999,25.107 C20.908,25.252 20.875,25.410 20.875,25.539 C20.875,25.664 21.267,26.113 21.267,26.113 C21.267,26.113 21.294,26.120 21.323,26.130 C21.386,26.149 21.486,26.192 21.486,26.277 C21.486,26.405 21.339,26.458 21.486,26.549 C21.629,26.640 21.558,26.655 21.647,26.711 C21.690,26.737 21.960,26.797 22.228,26.853 C22.521,26.910 22.813,26.963 22.813,26.963 L23.11,26.819 L23.175,26.819 L23.353,26.819 L23.441,26.513 L23.712,26.496 L23.730,26.205 C23.730,26.205 23.695,25.916 23.783,25.916 C23.826,25.916 23.959,25.842 24.83,25.767 C24.208,25.690 24.322,25.609 24.322,25.609 C24.322,25.609 24.391,25.624 24.484,25.637 C24.621,25.658 24.806,25.672 24.861,25.627 C24.952,25.556 25.151,25.266 25.151,25.266 C25.151,25.266 25.109,25.36 25.155,24.938 C25.169,24.906 25.189,24.890 25.221,24.890 C25.364,24.890 25.707,24.909 25.814,25.17 C25.921,25.122 26.189,25.266 26.299,25.250 C26.393,25.233 26.540,25.138 26.648,25.63 L26.693,25.31 C26.731,25.2 26.839,24.928 26.955,24.840 C26.959,24.849 26.962,24.854 26.962,24.854 C26.962,24.854 27.213,24.887 27.285,25.17 C27.357,25.141 27.392,25.376 27.357,25.519 C27.321,25.660 27.590,25.788 27.679,25.895 C27.769,26.2 28.203,26.579 28.344,26.758 C28.488,26.935 28.776,27.260 28.776,27.260 L28.919,27.604 L28.617,27.821 C28.617,27.821 28.293,27.802 28.184,27.766 C28.76,27.730 27.988,27.838 27.988,27.838 C27.988,27.838 27.914,27.802 27.754,27.659 C27.591,27.515 27.702,27.678 27.502,27.786 C27.306,27.892 27.754,28.55 27.864,28.145 C27.969,28.239 28.112,28.395 28.184,28.491 C28.256,28.580 28.436,28.458 28.436,28.311 C28.436,28.165 28.455,28.41 28.455,28.41 L28.776,28.41 L28.975,27.808 L29.140,27.665 L29.212,27.465 L29.86,27.105 C29.86,27.105 29.306,27.33 29.387,27.33 C29.480,27.33 29.567,27.303 29.567,27.303 L29.661,27.339 C29.661,27.339 29.661,27.123 29.606,27.33 C29.553,26.942 29.265,26.728 29.265,26.728 C29.265,26.728 28.943,26.603 28.848,26.531 C28.759,26.460 28.549,26.82 28.436,25.885 C28.330,25.687 28.403,25.666 28.383,25.579 C28.365,25.489 28.184,25.381 28.112,25.258 C28.41,25.130 28.62,24.953 28.62,24.953 C28.62,24.953 28.224,24.845 28.403,24.736 C28.467,24.698 28.499,24.670 28.502,24.655 C28.573,24.730 28.760,24.945 28.760,25.77 C28.760,25.240 28.832,25.420 28.868,25.527 C28.904,25.632 29.119,25.724 29.407,25.778 C29.695,25.831 29.603,26.29 29.603,26.29 C29.603,26.29 29.873,26.352 29.907,26.569 C29.940,26.786 29.940,26.893 29.960,27.163 C29.979,27.431 30.106,27.465 30.192,27.724 C30.282,27.972 30.315,27.972 30.371,28.169 C30.396,28.261 30.413,28.352 30.446,28.442 C30.268,29.102 30.80,29.767 29.881,30.435 C29.714,30.592 29.592,31.162 29.592,31.162 C29.592,31.162 29.538,31.195 29.460,31.213 L29.461,31.213 L29.87,31.123 L29.87,31.123 C28.901,30.920 28.463,30.838 28.234,30.688 C27.998,30.529 27.998,30.188 27.813,30.31 C27.629,29.870 27.498,29.953 27.498,29.953 C27.498,29.953 26.976,29.846 26.869,29.715 C26.813,29.645 26.719,29.539 26.644,29.455 C26.578,29.378 26.525,29.323 26.525,29.323 C26.525,29.323 26.575,29.273 26.644,29.220 C26.722,29.153 26.821,29.76 26.892,29.61 C27.23,29.32 26.840,28.769 26.682,28.506 C26.524,28.244 27.102,28.164 27.75,28.33 C27.47,27.905 26.798,27.902 26.642,27.828 L26.629,27.824 C26.470,27.742 26.106,27.824 26.106,27.824 L25.607,27.721 C25.607,27.721 25.449,27.771 25.318,27.824 C25.272,27.842 25.211,27.833 25.149,27.802 C25.35,27.755 24.914,27.638 24.849,27.502 C24.777,27.358 24.628,27.389 24.480,27.379 C24.410,27.372 24.338,27.360 24.273,27.320 C24.201,27.276 24.139,27.260 24.80,27.264 C23.965,27.267 23.858,27.329 23.721,27.349 C23.550,27.371 23.322,27.427 23.172,27.446 C23.140,27.452 23.113,27.456 23.91,27.456 C22.960,27.456 22.800,27.558 22.619,27.665 C22.435,27.769 22.384,27.375 22.384,27.375 C22.384,27.375 22.328,27.375 22.225,27.357 C22.119,27.336 21.955,27.299 21.753,27.218 C21.360,27.57 21.541,26.822 21.541,26.822 C21.541,26.822 21.470,26.882 21.320,27.12 C21.270,27.55 21.217,27.107 21.151,27.164 C20.888,27.398 20.809,27.505 20.573,27.479 C20.340,27.451 20.208,27.558 20.50,27.638 C19.905,27.711 19.584,28.271 19.536,28.361 C16.411,27.285 13.321,26.21 10.529,24.537 C10.407,24.471 10.211,24.364 9.969,24.226 C9.969,24.226 9.969,24.226 9.969,24.228 C9.554,23.994 9.4,23.665 8.416,23.288 C8.792,21.341 9.468,19.460 10.424,17.714 C10.409,17.737 10.395,17.758 10.387,17.783 C6.952,17.833 4.725,18.479 4.388,19.737 C3.608,22.663 13.278,27.802 25.985,31.219 C27.428,31.588 28.841,31.932 30.222,32.239 ZM26.359,26.856 C26.272,26.890 26.272,27.86 26.272,27.86 C26.272,27.86 26.342,27.174 26.431,27.190 C26.489,27.202 26.556,27.196 26.650,27.175 C26.691,27.166 26.744,27.154 26.802,27.137 C26.974,27.86 26.870,26.997 26.906,26.875 C26.939,26.752 26.939,26.590 27.9,26.469 C27.79,26.347 26.867,26.256 26.867,26.256 C26.867,26.256 26.705,26.486 26.645,26.579 L26.639,26.590 C26.588,26.676 26.449,26.819 26.359,26.856 ZM26.648,25.913 C26.743,25.895 26.950,25.838 26.994,25.728 C27.44,25.588 27.28,25.660 27.82,25.500 C27.137,25.339 26.941,25.553 26.941,25.553 L26.711,25.693 L26.648,25.829 L26.607,25.922 C26.607,25.922 26.621,25.922 26.648,25.913 Z" />
</symbol>

<symbol viewBox="0 0 55 55" id="icon_four">
<path fill-rule="evenodd"  fill="rgb(38, 38, 38)"
 d="M53.999,15.897 C51.29,16.449 47.687,17.828 46.114,18.530 C45.610,17.751 45.28,17.30 44.356,16.359 L39.484,11.487 C38.812,10.821 38.85,10.234 37.311,9.735 C38.13,8.157 39.394,4.816 39.946,1.846 C40.138,0.814 41.476,0.520 42.94,1.366 C43.150,2.818 44.194,4.684 43.882,6.82 L51.107,3.184 C52.85,2.788 53.63,3.766 52.667,4.744 L49.763,11.961 C51.161,11.649 53.27,12.693 54.479,13.749 C55.331,14.367 55.31,15.705 53.999,15.897 ZM42.730,17.985 C47.230,22.490 46.768,29.725 42.172,33.697 L31.893,27.812 L37.53,36.822 L18.247,47.387 L11.503,43.752 L14.575,49.451 L5.424,54.593 C4.914,54.874 4.398,55.1 3.906,55.1 C1.758,55.1 0.11,52.613 1.247,50.411 L13.21,29.467 L21.368,34.530 L15.559,24.956 L20.912,15.447 C22.922,11.871 26.582,9.970 30.285,9.970 C32.997,9.970 35.733,10.989 37.857,13.113 L42.730,17.985 Z"/>
 </symbol>

</svg>