<?xml version="1.0" standalone="no"?>
<!DOCTYPE svg PUBLIC "-//W3C//DTD SVG 20010904//EN"
 "http://www.w3.org/TR/2001/REC-SVG-20010904/DTD/svg10.dtd">
<svg version="1.0" xmlns="http://www.w3.org/2000/svg"
 width="96.000000pt" height="96.000000pt" viewBox="0 0 96.000000 96.000000"
 preserveAspectRatio="xMidYMid meet">
<metadata>
Created by potrace 1.14, written by Peter Selinger 2001-2017
</metadata>
<g transform="translate(0.000000,96.000000) scale(0.100000,-0.100000)"
fill="#000000" stroke="none">
<path d="M340 839 c0 -6 -11 -25 -25 -41 -29 -34 -26 -62 8 -89 11 -9 22 -26
24 -39 2 -17 -1 -20 -16 -15 -33 10 -30 -9 5 -32 19 -12 34 -17 34 -12 0 6 10
9 23 8 36 -3 76 18 83 45 9 37 -5 67 -37 78 -21 7 -29 16 -29 34 0 39 0 39 21
37 28 -4 23 16 -7 27 -18 7 -31 7 -39 0 -9 -8 -15 -8 -20 0 -8 13 -25 13 -25
-1z m47 -51 c1 -18 0 -40 -3 -48 -4 -13 -6 -13 -14 0 -14 22 -12 67 3 73 6 3
12 6 12 6 0 1 1 -14 2 -31z m-50 -57 c-17 -6 -26 22 -14 43 11 20 11 19 17 -9
3 -16 2 -32 -3 -34z m119 -38 c4 -16 2 -28 -7 -34 -24 -15 -29 -10 -29 31 0
31 3 38 15 34 8 -4 18 -17 21 -31z m-60 -50 c-3 -3 -12 0 -20 6 -17 14 -13 51
6 62 10 6 14 -1 16 -27 2 -20 1 -38 -2 -41z"/>
<path d="M725 760 c-35 -14 -48 -38 -54 -102 l-6 -62 -105 -2 c-58 -1 -139 -5
-180 -8 -41 -3 -116 -8 -166 -11 -103 -5 -144 -17 -144 -41 0 -9 24 -62 54
-118 45 -85 52 -105 43 -124 -8 -17 -6 -26 6 -40 10 -10 17 -26 17 -35 0 -24
49 -57 84 -57 37 1 62 18 67 45 4 18 14 20 117 23 l113 3 28 -30 c57 -61 142
-25 121 51 -5 16 -5 28 0 28 27 0 40 65 44 230 2 63 6 123 10 132 9 19 56 38
97 38 33 0 43 12 34 41 -13 39 -122 63 -180 39z"/>
</g>
</svg>
